<svg version="1.1" id="Layer_1" xmlns="http://www.w3.org/2000/svg" xmlns:xlink="http://www.w3.org/1999/xlink" x="0px" y="0px"
	 width="100%" viewBox="0 0 1024 1024" enable-background="new 0 0 1024 1024" xml:space="preserve">
<path fill="#000000" opacity="1.000000" stroke="none" 
	d="
M543.526123,89.223061 
	C589.264587,92.727158 632.432251,104.495193 673.641663,123.225311 
	C715.062378,142.051498 752.350525,167.175888 785.483032,198.506027 
	C820.330811,231.458160 848.739868,269.134613 870.750916,311.727081 
	C891.006836,350.923248 904.517944,392.336456 912.151489,435.723572 
	C917.015503,463.369141 918.402222,491.296600 917.137817,519.247742 
	C915.722412,550.534302 910.162659,581.225220 901.698730,611.437622 
	C884.852539,671.571167 856.136353,725.346680 815.710449,772.812012 
	C784.687927,809.236511 747.652649,838.318481 705.599670,861.106079 
	C666.952637,882.048035 626.048096,896.595764 582.922119,904.938843 
	C554.039978,910.526306 524.818115,912.825989 495.510284,911.099976 
	C411.768921,906.168152 336.445618,877.835693 269.584900,827.343445 
	C222.134293,791.509460 185.636978,746.364990 158.007446,693.813538 
	C134.377167,648.868591 119.162567,601.247742 111.937767,551.080383 
	C108.897873,529.972046 107.763863,508.649139 108.855362,487.341461 
	C112.153557,422.955658 128.123566,362.004333 158.720428,305.013031 
	C179.784775,265.777466 206.173309,230.655624 238.418594,199.961182 
	C276.871002,163.358109 320.694702,135.150406 370.064697,115.466835 
	C398.334045,104.195984 427.556366,96.565498 457.527710,91.966927 
	C478.567108,88.738800 499.848846,87.423325 521.171143,87.830002 
	C528.478271,87.969376 535.774780,88.662338 543.526123,89.223061 
M258.655212,236.153091 
	C243.927094,250.770081 231.300232,267.117004 219.765289,284.283478 
	C196.993820,318.172333 180.900574,355.077667 170.196075,394.464172 
	C162.668335,422.162048 157.892166,450.307434 156.537369,478.895569 
	C155.546112,499.812347 156.290451,520.749451 159.053940,541.658264 
	C162.451691,567.365845 168.739029,592.266968 177.543655,616.523621 
	C188.912491,647.844666 204.417587,677.054260 224.009293,704.081909 
	C245.262634,733.401733 269.631897,759.717957 298.447510,781.741577 
	C326.804138,803.414246 357.686035,820.634766 390.853394,833.859192 
	C427.858368,848.613770 466.315979,856.131409 506.016968,857.639465 
	C518.327698,858.107178 530.577576,856.964600 542.840881,855.809509 
	C569.468323,853.301453 595.251526,847.104614 620.531189,838.661621 
	C652.004456,828.149963 681.151550,812.990234 708.698181,794.530334 
	C753.266113,764.663818 789.828064,727.130554 817.614319,681.239990 
	C845.672852,634.899780 863.221863,584.916504 868.902466,530.862305 
	C871.681091,504.421997 871.607605,477.995178 868.386841,451.693207 
	C864.659119,421.251373 857.685242,391.503021 846.823853,362.698639 
	C823.328491,300.389557 786.905823,247.274689 734.704529,205.598938 
	C664.785278,149.777802 585.563721,121.638710 495.448761,126.168373 
	C469.538971,127.470741 444.205780,131.801178 419.406464,138.960129 
	C357.409149,156.857224 303.986420,189.193680 258.655212,236.153091 
z"/>
<path fill="#000000" opacity="1.000000" stroke="none" 
	d="
M366.707581,517.866943 
	C377.852844,483.664825 395.397278,453.046356 413.288300,422.563416 
	C438.577240,379.475800 464.788422,336.894165 486.408051,291.755066 
	C494.682495,274.479095 502.338501,256.929352 509.257141,239.062012 
	C510.191406,236.649353 510.878693,234.071579 513.014099,231.925873 
	C516.104919,234.797089 516.953186,238.436081 518.187317,241.732224 
	C537.070312,292.165619 562.623962,339.225922 589.962341,385.459290 
	C609.872009,419.129517 631.303528,451.958038 647.872925,487.535919 
	C657.911804,509.091522 665.151855,531.565735 668.052368,555.136108 
	C672.841309,594.052734 664.174316,630.261230 643.394226,663.393127 
	C624.617493,693.330872 599.410278,715.819519 565.634033,727.767822 
	C543.475769,735.606262 520.739685,737.682129 497.332458,735.565247 
	C463.142395,732.473083 433.841888,719.087952 409.171051,695.461365 
	C388.648438,675.807434 374.880737,651.894653 365.810059,625.130981 
	C359.323303,605.991272 356.733307,586.281311 357.800201,566.159424 
	C358.665192,549.845154 361.412781,533.804932 366.707581,517.866943 
z"/>
</svg>