<?xml version="1.0" encoding="UTF-8" standalone="no"?>
<!-- Created with Inkscape (http://www.inkscape.org/) -->

<svg
   width="512mm"
   height="512mm"
   viewBox="0 0 512 512"
   version="1.1"
   id="svg1"
   inkscape:version="1.4.4 (dcaf3e7d9e, 2026-05-05)"
   sodipodi:docname="icon.svg"
   xmlns:inkscape="http://www.inkscape.org/namespaces/inkscape"
   xmlns:sodipodi="http://sodipodi.sourceforge.net/DTD/sodipodi-0.dtd"
   xmlns="http://www.w3.org/2000/svg"
   xmlns:svg="http://www.w3.org/2000/svg">
  <sodipodi:namedview
     id="namedview1"
     pagecolor="#ffffff"
     bordercolor="#000000"
     borderopacity="0.25"
     inkscape:showpageshadow="2"
     inkscape:pageopacity="0.0"
     inkscape:pagecheckerboard="0"
     inkscape:deskcolor="#d1d1d1"
     inkscape:document-units="mm"
     inkscape:zoom="0.26792403"
     inkscape:cx="-1631.0594"
     inkscape:cy="565.45879"
     inkscape:window-width="5120"
     inkscape:window-height="1412"
     inkscape:window-x="0"
     inkscape:window-y="0"
     inkscape:window-maximized="1"
     inkscape:current-layer="layer1" />
  <defs
     id="defs1" />
  <g
     inkscape:label="Ebene 1"
     inkscape:groupmode="layer"
     id="layer1">
    <path
       class="cls-2"
       d="M 198.21035,313.96524 C 252.47645,198.17539 202.17958,60.431255 85.827158,6.4315167 L 28.243409,129.36243 c -10.367424,22.24916 -12.263261,48.4524 -3.198985,73.29812 9.064054,24.90484 27.429278,43.73101 49.763734,54.11795 l 44.017112,20.47856 c -9.59718,-3.83585 -20.083275,-5.96043 -31.043163,-5.96043 -45.91295,0 -83.176527,37.06215 -83.176527,82.79976 0,45.73761 37.204464,82.79976 83.176527,82.79976 31.872523,0 59.598033,-17.88176 73.520013,-44.14412 v 0 c -3.96923,9.73764 -6.16108,20.24258 -6.16108,31.2786 0,45.73762 37.20425,82.79999 83.11719,82.79999 45.91296,0 83.17654,-37.12126 83.17654,-82.79999 0,-31.80967 -18.00967,-59.37042 -44.37269,-73.23923 l 44.43202,20.65567 c 22.33445,10.32806 48.63814,12.21643 73.57912,3.18698 25.00031,-9.02943 43.89866,-27.32452 54.32543,-49.57367 L 506.9824,202.07035 C 390.62999,148.0115 252.41712,198.17539 198.15102,314.02435 Z m 82.05094,110.06539 c 0,23.01647 -18.72078,41.72465 -41.88461,41.72465 -23.16381,0 -41.88438,-18.64929 -41.88438,-41.72465 0,-23.07533 18.72057,-41.72441 41.88438,-41.72441 23.16383,0 41.88461,18.64908 41.88461,41.72441 z"
       id="path1"
       style="fill:#ffd100;stroke-width:0px" />
  </g>
</svg>
